<?xml version="1.0" encoding="UTF-8"?>
<svg version="1.1" xmlns="http://www.w3.org/2000/svg" width="561" height="445">
<path d="M0 0 C5.4 -0.36 5.4 -0.36 7.875 1.125 C9.53195176 3.88658627 9.25986106 5.80257909 9 9 C8.01901489 11.4171247 7.00598683 13.63413473 5.8125 15.9375 C2.09766479 23.44959599 -0.48708821 31.00437156 -3 39 C11.85 38.505 11.85 38.505 27 38 C27.33 35.36 27.66 32.72 28 30 C28.58962382 27.83804599 29.23364307 25.69000718 29.9375 23.5625 C31.17517376 19.72036887 32.28235881 15.96020826 33.0625 12 C33.82419305 8.49492095 34.48343869 5.69011726 37 3 C40.5625 2.5 40.5625 2.5 44 3 C46.15181619 6.22772428 46.20108967 7.17773421 45.54296875 10.85546875 C44.20784675 16.1287204 42.23676364 21.27816497 39.98828125 26.2265625 C37.09386215 32.70182421 35.86607436 39.2571512 34.57250977 46.18774414 C33.35415766 52.58394464 31.71779848 58.73280051 29.79638672 64.94921875 C27.77362878 71.55362622 26.32188566 78.21861909 25 85 C20.52646877 85.147075 18.36175165 85.10315537 15 82 C15.77018173 77.05669072 16.78634289 72.19293543 17.875 67.3125 C18.05063477 66.52246582 18.22626953 65.73243164 18.40722656 64.91845703 C19.76300337 58.8937392 21.29690243 52.93620093 23 47 C22.44650879 47.06058594 21.89301758 47.12117188 21.32275391 47.18359375 C18.75739678 47.46121825 16.19123714 47.7306361 13.625 48 C12.75488281 48.09539062 11.88476562 48.19078125 10.98828125 48.2890625 C4.96970497 48.91321115 -0.95079012 49.11723906 -7 49 C-7.13736572 49.87164795 -7.27473145 50.7432959 -7.41625977 51.64135742 C-7.95028004 54.71392829 -8.60234725 57.70912321 -9.33984375 60.73828125 C-9.59830078 61.80626953 -9.85675781 62.87425781 -10.12304688 63.97460938 C-10.39181641 65.07611328 -10.66058594 66.17761719 -10.9375 67.3125 C-11.46818227 69.49591539 -11.99814274 71.67950636 -12.52734375 73.86328125 C-12.76187256 74.82532471 -12.99640137 75.78736816 -13.23803711 76.77856445 C-14.19951768 80.84352316 -15.10236561 84.92053774 -16 89 C-15.44084396 89.01030746 -14.88168793 89.02061493 -14.30558777 89.03123474 C-8.38227671 89.14106665 -2.45906555 89.25547537 3.46411133 89.37231445 C5.66233185 89.41510883 7.86057396 89.45681098 10.05883789 89.49731445 C43.77069825 90.12061066 43.77069825 90.12061066 58.74951172 91.78564453 C64.10468621 92.29571648 69.50165802 92.36463774 74.87695312 92.51757812 C89.81631314 93.07321748 89.81631314 93.07321748 94.125 96.875 C95 99 95 99 94.8125 101.0625 C94 103 94 103 92 106 C89.93359375 106.328125 89.93359375 106.328125 87.4375 106.25 C86.63183594 106.23453125 85.82617188 106.2190625 84.99609375 106.203125 C82.68364075 106.04634853 80.37643153 105.81098755 78.07421875 105.54296875 C71.52620751 104.79420059 64.95320707 104.43572495 58.375 104.0625 C57.64213776 104.02086731 56.90927551 103.97923462 56.15420532 103.93634033 C42.31674556 103.16207604 28.47209308 102.54835332 14.62359619 102.00973511 C12.40957163 101.92291948 10.19565108 101.83338733 7.98187256 101.74050903 C-32.8116256 100.04771976 -73.69541874 101.04340845 -114.50013733 101.80731201 C-118.18265109 101.87607653 -121.86518715 101.94352738 -125.54772949 102.01074219 C-153.78560312 102.52857005 -182.02230983 103.06814139 -210.25 104 C-211.93177338 104.05362701 -211.93177338 104.05362701 -213.64752197 104.1083374 C-226.78032487 104.53707194 -239.86446547 105.295253 -252.96789551 106.2716217 C-261.81540759 106.92955024 -270.65939134 107.42816002 -279.52145386 107.83370972 C-298.10964166 108.69941909 -316.55383014 110.3102218 -335.06488037 112.2121582 C-339.2509927 112.64175255 -343.43755791 113.06631402 -347.62478638 113.4848938 C-349.54271069 113.67916473 -351.45973777 113.88223269 -353.37670898 114.08569336 C-361.57043158 114.9131232 -369.76323409 115.44615184 -378 115 C-379.89128342 113.10871658 -379.2366852 110.42932274 -379.328125 107.91015625 C-379.21984375 107.27980469 -379.1115625 106.64945312 -379 106 C-375.5437455 103.69583033 -373.96631109 103.68985202 -369.875 103.5 C-364.65003832 103.21059396 -359.5043852 102.74100785 -354.30859375 102.09375 C-344.28505213 100.87927236 -334.24213905 99.91669302 -324.1875 99 C-323.23589996 98.91284729 -322.28429993 98.82569458 -321.30386353 98.73590088 C-304.62832323 97.22005307 -287.95941246 96.15113446 -271.23731995 95.32820129 C-265.28736927 95.02945918 -259.34716032 94.62335435 -253.40454102 94.20336914 C-238.80497937 93.1763733 -224.23427491 92.63871978 -209.60400391 92.34155273 C-202.19520482 92.1876868 -194.80483457 91.96334537 -187.40625 91.5390625 C-173.03226004 90.72943045 -158.6398156 90.34821025 -144.25 89.9375 C-143.47699177 89.91513527 -142.70398354 89.89277054 -141.90755081 89.86972809 C-102.94027742 88.74703949 -63.97966208 88.79082337 -25 89 C-25.25426003 87.59048569 -25.25426003 87.59048569 -25.51365662 86.15249634 C-25.9841406 83.10280121 -25.90030137 81.13732264 -25.28515625 78.1484375 C-25.09783936 77.22901367 -24.91052246 76.30958984 -24.7175293 75.36230469 C-24.50136963 74.37649414 -24.28520996 73.39068359 -24.0625 72.375 C-23.83796143 71.3324707 -23.61342285 70.28994141 -23.38208008 69.21582031 C-18.08324853 45.36843335 -10.95282896 21.90565792 0 0 Z " fill="#F2F2F2" transform="translate(422,169)"/>
<path d="M0 0 C3.13607589 3.54871745 4.85386132 7.01161731 5.21875 11.80078125 C4.23010097 21.74023493 -4.30149174 29.3639002 -11 36 C-9.948125 36.0928125 -9.948125 36.0928125 -8.875 36.1875 C-3.5429788 37.69437556 -0.76754842 40.6877398 1.9375 45.3125 C4.40002405 53.85890701 0.85727386 61.35922528 -3 69 C-7.07299184 75.92920939 -13.63668409 79.22945942 -21 82 C-27.99136405 83.70766076 -34.73850899 83.45137197 -41.05078125 79.8203125 C-43 78.5 -43 78.5 -46 76 C-46 75.34 -46 74.68 -46 74 C-46.763125 73.9175 -47.52625 73.835 -48.3125 73.75 C-51 73 -51 73 -52.875 71.3125 C-54.818101 67.31834795 -53.24720762 63.72378314 -51.86328125 59.671875 C-51.35312641 58.36192571 -50.8355867 57.05483923 -50.3125 55.75 C-50.02286377 55.01418701 -49.73322754 54.27837402 -49.43481445 53.52026367 C-47.17459816 47.82594624 -44.83453686 42.16477214 -42.4921875 36.50390625 C-42.18155869 35.75251373 -41.87092987 35.00112122 -41.55088806 34.22695923 C-39.97357136 30.4132938 -38.3912094 26.60185626 -36.80004883 22.79394531 C-36.20384946 21.35876107 -35.60773593 19.92354116 -35.01171875 18.48828125 C-34.73798431 17.83775284 -34.46424988 17.18722443 -34.18222046 16.51698303 C-32.18349473 11.68876605 -30.53524192 6.82913584 -29.5625 1.6875 C-29 0 -29 0 -26 -2 C-17.02676638 -4.76971651 -8.29549616 -4.71704684 0 0 Z M-19 9 C-26.03225151 20.86672362 -26.03225151 20.86672362 -29 34 C-23.14838669 33.87809139 -20.227908 32.16037446 -15.9921875 28.171875 C-11.41256228 23.17918554 -5.19522464 16.29494203 -4.875 9.25 C-4.91625 8.5075 -4.9575 7.765 -5 7 C-7.32686453 5.83656773 -8.84721413 5.80104012 -11.4375 5.75 C-12.61119141 5.71132812 -12.61119141 5.71132812 -13.80859375 5.671875 C-16.61335759 6.09183964 -17.28920744 6.75876617 -19 9 Z M-34 45 C-36.3191235 48.78692318 -37.61468326 52.7982121 -39 57 C-39.75892996 58.87984955 -40.52872599 60.75537241 -41.3125 62.625 C-42.62807713 65.72185262 -42.62807713 65.72185262 -43 69 C-42.05125 69.45375 -41.1025 69.9075 -40.125 70.375 C-37 72 -37 72 -35 74 C-28.91482082 75.24588798 -23.70713874 73.60007298 -18.37109375 70.703125 C-13.85252618 67.45749822 -10.4808594 62.96171879 -8 58 C-7.12343249 51.85907858 -7.12343249 51.85907858 -9.19921875 46.265625 C-15.86870134 40.55372555 -26.68715541 39.97328009 -34 45 Z " fill="#EDEDED" transform="translate(176,174)"/>
<path d="M0 0 C5.4 -0.36 5.4 -0.36 7.875 1.125 C9.53195176 3.88658627 9.25986106 5.80257909 9 9 C8.01901489 11.4171247 7.00598683 13.63413473 5.8125 15.9375 C2.09766479 23.44959599 -0.48708821 31.00437156 -3 39 C6.9 38.67 16.8 38.34 27 38 C27.33 35.36 27.66 32.72 28 30 C28.58962382 27.83804599 29.23364307 25.69000718 29.9375 23.5625 C31.17517376 19.72036887 32.28235881 15.96020826 33.0625 12 C33.82419305 8.49492095 34.48343869 5.69011726 37 3 C40.5625 2.5 40.5625 2.5 44 3 C46.15181619 6.22772428 46.20108967 7.17773421 45.54296875 10.85546875 C44.20784675 16.1287204 42.23676364 21.27816497 39.98828125 26.2265625 C37.09386215 32.70182421 35.86607436 39.2571512 34.57250977 46.18774414 C33.35415766 52.58394464 31.71779848 58.73280051 29.79638672 64.94921875 C27.77362878 71.55362622 26.32188566 78.21861909 25 85 C20.52646877 85.147075 18.36175165 85.10315537 15 82 C15.77018173 77.05669072 16.78634289 72.19293543 17.875 67.3125 C18.13845215 66.12744873 18.13845215 66.12744873 18.40722656 64.91845703 C19.76300337 58.8937392 21.29690243 52.93620093 23 47 C22.44650879 47.06058594 21.89301758 47.12117188 21.32275391 47.18359375 C18.75739678 47.46121825 16.19123714 47.7306361 13.625 48 C12.75488281 48.09539062 11.88476562 48.19078125 10.98828125 48.2890625 C4.96970497 48.91321115 -0.95079012 49.11723906 -7 49 C-7.13736572 49.87164795 -7.27473145 50.7432959 -7.41625977 51.64135742 C-7.95028004 54.71392829 -8.60234725 57.70912321 -9.33984375 60.73828125 C-9.59830078 61.80626953 -9.85675781 62.87425781 -10.12304688 63.97460938 C-10.39181641 65.07611328 -10.66058594 66.17761719 -10.9375 67.3125 C-12.69136999 74.52854416 -14.4173499 81.74427562 -16 89 C-14.35 89 -12.7 89 -11 89 C-16.81798241 92.87865494 -23.66632341 92.80124246 -30.4296875 91.55078125 C-32.29913325 91.0817566 -34.15202725 90.54754748 -36 90 C-36 89.67 -36 89.34 -36 89 C-32.37 89 -28.74 89 -25 89 C-25.20496094 88.22914063 -25.40992188 87.45828125 -25.62109375 86.6640625 C-26.14170306 81.62971684 -25.1402273 77.29004704 -24.0625 72.375 C-23.83796143 71.3324707 -23.61342285 70.28994141 -23.38208008 69.21582031 C-18.08324853 45.36843335 -10.95282896 21.90565792 0 0 Z " fill="#EFEFEF" transform="translate(422,169)"/>
<path d="M0 0 C0.95583984 -0.03287109 1.91167969 -0.06574219 2.89648438 -0.09960938 C10.70805432 -0.15818284 16.41533154 1.831165 22.19360352 7.17822266 C28.52020766 13.82140511 28.64419582 21.11950238 28.50390625 29.9296875 C27.65109542 45.55875136 19.90359477 60.88560683 8.3125 71.4375 C7.6525 71.4375 6.9925 71.4375 6.3125 71.4375 C6.3125 72.0975 6.3125 72.7575 6.3125 73.4375 C4.37624902 74.41913422 2.43845461 75.39772454 0.5 76.375 C-0.57894531 76.92027344 -1.65789062 77.46554688 -2.76953125 78.02734375 C-8.07371719 80.59067859 -12.35253594 80.65301179 -18.125 80.6875 C-18.98416016 80.708125 -19.84332031 80.72875 -20.72851562 80.75 C-26.96847775 80.78872746 -26.96847775 80.78872746 -30.23046875 79.1953125 C-31.9910661 77.07126744 -32.32906252 75.79838722 -32.5625 73.0625 C-32.64242187 72.31226563 -32.72234375 71.56203125 -32.8046875 70.7890625 C-32.66391864 67.96430075 -31.80015802 66.03370205 -30.6875 63.4375 C-30.04049637 61.23551285 -29.41721943 59.02647279 -28.8125 56.8125 C-26.30867865 47.94786779 -23.11801832 39.47900895 -19.6875 30.9375 C-19.17834716 29.6601715 -18.66923206 28.38282795 -18.16015625 27.10546875 C-17.22951038 24.78749401 -16.28121539 22.47645849 -15.30859375 20.17578125 C-14.91800781 19.21027344 -14.52742188 18.24476563 -14.125 17.25 C-13.59712891 15.99123047 -13.59712891 15.99123047 -13.05859375 14.70703125 C-12.40559511 12.3385098 -12.40559511 12.3385098 -14.1015625 10.33203125 C-14.62492187 9.70683594 -15.14828125 9.08164063 -15.6875 8.4375 C-15.625 5.3125 -15.625 5.3125 -14.6875 2.4375 C-10.19871559 -0.52355999 -5.18750282 0.03085758 0 0 Z M-1.6875 11.4375 C-3.11539256 14.18575619 -3.11539256 14.18575619 -4.16015625 17.51171875 C-4.58490234 18.73697266 -5.00964844 19.96222656 -5.44726562 21.22460938 C-5.88210165 22.52454196 -6.31634185 23.824674 -6.75 25.125 C-7.61127386 27.65133945 -8.47986762 30.17510295 -9.34765625 32.69921875 C-9.75266357 33.88459229 -10.1576709 35.06996582 -10.57495117 36.29125977 C-11.80057161 39.75726164 -13.20425147 43.07605511 -14.6875 46.4375 C-17.58911599 54.64669828 -19.50699739 62.81672438 -20.6875 71.4375 C-15.99692108 72.88481827 -12.24455763 72.08643533 -7.6875 70.4375 C-0.92288016 66.42704681 4.64222249 60.71318541 9.3125 54.4375 C9.91578125 53.66212891 9.91578125 53.66212891 10.53125 52.87109375 C16.1966559 44.87388969 19.96337542 32.24330221 18.3125 22.4375 C17.066957 17.94816876 15.1548887 14.16761829 11.3125 11.4375 C6.57037486 9.74888348 2.69332649 8.42551599 -1.6875 11.4375 Z " fill="#EFEFEF" transform="translate(218.6875,171.5625)"/>
<path d="M0 0 C1.13953125 -0.03738281 2.2790625 -0.07476562 3.453125 -0.11328125 C7.47841674 0.40657278 8.991098 1.36282286 11.75 4.3125 C17.40691075 16.90423809 13.90231072 38.62387076 11.24560547 51.81738281 C10.72146707 54.45614853 10.47801464 57.01643344 10.28515625 59.69921875 C10.16817383 61.2315918 10.16817383 61.2315918 10.04882812 62.79492188 C9.89272942 64.91192994 9.73903727 67.02911699 9.58789062 69.14648438 C8.22351605 86.83898395 8.22351605 86.83898395 5.75 89.3125 C3.9375 89.26171875 3.9375 89.26171875 1.75 89 C1.028125 88.92136719 0.30625 88.84273438 -0.4375 88.76171875 C-1.3346875 88.53935547 -1.3346875 88.53935547 -2.25 88.3125 C-3.67015357 85.47219285 -3.14121288 83.3460799 -2.875 80.1875 C-2.72611328 78.32351562 -2.72611328 78.32351562 -2.57421875 76.421875 C-2.52056152 75.75865234 -2.4669043 75.09542969 -2.41162109 74.41210938 C-2.13022183 70.75646944 -1.91045183 67.09708961 -1.6875 63.4375 C-1.543125 61.08625 -1.39875 58.735 -1.25 56.3125 C-6.86 56.3125 -12.47 56.3125 -18.25 56.3125 C-19.549375 59.15875 -19.549375 59.15875 -20.875 62.0625 C-29.34215886 80.40465886 -29.34215886 80.40465886 -31.25 82.3125 C-33.92058851 82.45365161 -36.57432238 82.35497107 -39.25 82.3125 C-39.60928526 77.10286373 -39.71199786 74.42311827 -36.44921875 70.17578125 C-34.21204054 66.69977471 -33.02864238 62.72691155 -31.59765625 58.8671875 C-30.26180004 55.34362475 -28.81332248 51.89370215 -27.3125 48.4375 C-25.22209754 43.60979303 -23.19631454 38.76239794 -21.25 33.875 C-21.00330566 33.25616943 -20.75661133 32.63733887 -20.50244141 31.99975586 C-19.22943725 28.79814626 -17.96791721 25.59227176 -16.71484375 22.3828125 C-8.00133216 0.17043196 -8.00133216 0.17043196 0 0 Z M1.75 10.3125 C-4.74037162 16.05253964 -7.08385142 26.4048582 -10.046875 34.28125 C-11.10212563 36.93993341 -12.25498311 39.45862914 -13.5625 42 C-15.40130859 44.98991848 -15.40130859 44.98991848 -15.25 47.3125 C-13.89595503 47.34013357 -12.54173445 47.35917422 -11.1875 47.375 C-10.05634766 47.39240234 -10.05634766 47.39240234 -8.90234375 47.41015625 C-5.63875808 47.28999477 -2.47478174 46.81378186 0.75 46.3125 C1.25526314 41.77140277 1.75328435 37.22953948 2.25 32.6875 C2.39308594 31.40230469 2.53617187 30.11710937 2.68359375 28.79296875 C2.81894531 27.54902344 2.95429688 26.30507812 3.09375 25.0234375 C3.28227539 23.31099854 3.28227539 23.31099854 3.47460938 21.56396484 C3.73937296 18.43797062 3.94222774 15.44524683 3.75 12.3125 C3.09 11.6525 2.43 10.9925 1.75 10.3125 Z " fill="#F3F3F3" transform="translate(497.25,171.6875)"/>
<path d="M0 0 C3.7231447 1.04248052 5.49605529 2.02697657 8.125 4.875 C9.89105117 10.40697704 10.32136138 15.02471042 9.69921875 20.8125 C9.63217239 21.53687256 9.56512604 22.26124512 9.49604797 23.00756836 C9.28088284 25.29813842 9.04693137 27.58633047 8.8125 29.875 C8.66609772 31.4087382 8.52090579 32.94259244 8.37695312 34.4765625 C7.85241904 39.98240924 7.31380515 45.48250403 6.59326172 50.96679688 C6.17663601 54.44403582 5.93101657 57.84595508 5.80859375 61.34375 C5.74575195 63.06464844 5.74575195 63.06464844 5.68164062 64.8203125 C5.64232422 65.99335938 5.60300781 67.16640625 5.5625 68.375 C5.49772461 70.18097656 5.49772461 70.18097656 5.43164062 72.0234375 C5.32626832 74.97386193 5.22414097 77.92436071 5.125 80.875 C1.65865334 81.76173984 -0.32291755 82.07880282 -3.71948242 80.82495117 C-5.875 78.875 -5.875 78.875 -6.44262695 76.0559082 C-6.41644287 74.94046631 -6.39025879 73.82502441 -6.36328125 72.67578125 C-6.34716797 71.46728516 -6.33105469 70.25878906 -6.31445312 69.01367188 C-6.25161133 67.1197168 -6.25161133 67.1197168 -6.1875 65.1875 C-6.16494141 63.91326172 -6.14238281 62.63902344 -6.11914062 61.32617188 C-6.06012262 58.1746104 -5.97782975 55.02538721 -5.875 51.875 C-8.81472221 52.12971599 -11.75064064 52.40299875 -14.6875 52.6875 C-15.52087891 52.75775391 -16.35425781 52.82800781 -17.21289062 52.90039062 C-18.01533203 52.98095703 -18.81777344 53.06152344 -19.64453125 53.14453125 C-20.38292236 53.21260986 -21.12131348 53.28068848 -21.88208008 53.35083008 C-25.04314619 54.18224119 -26.3870303 56.12698375 -28.12109375 58.78515625 C-30.32178699 62.76083486 -32.25533452 66.68833712 -33.875 70.9375 C-35.67252366 75.64494926 -38.04296989 79.71980828 -40.875 83.875 C-46.625 83.125 -46.625 83.125 -48.875 80.875 C-49.8047258 75.78498605 -47.09893359 72.02086941 -44.6875 67.75 C-41.97341712 62.81808748 -39.3800092 57.94278494 -37.1875 52.75 C-35.42945835 48.73419937 -33.39026155 45.98711232 -30.4140625 42.8125 C-27.76426479 39.47671405 -26.13702746 35.61514024 -24.3046875 31.7890625 C-22.42443255 27.95663029 -20.20974094 24.44140137 -17.875 20.875 C-16.70658783 19.04277861 -15.54003802 17.20936873 -14.375 15.375 C-13.78203125 14.44816406 -13.1890625 13.52132812 -12.578125 12.56640625 C-10.67126246 9.55303862 -8.82865171 6.50424814 -7.015625 3.43359375 C-4.96634977 0.63338548 -3.426068 -0.14895948 0 0 Z M-1.875 15.875 C-5.06783383 19.52101024 -7.47893515 23.463931 -9.8125 27.6875 C-12.70412246 32.83972264 -15.68991688 37.89830762 -18.875 42.875 C-15.86666904 44.37916548 -13.52538422 43.48339737 -10.25 42.9375 C-8.46722656 42.64552734 -8.46722656 42.64552734 -6.6484375 42.34765625 C-5.73320313 42.19167969 -4.81796875 42.03570312 -3.875 41.875 C-3.36817558 38.85517116 -2.86936665 35.83437183 -2.375 32.8125 C-2.16037109 31.54116211 -2.16037109 31.54116211 -1.94140625 30.24414062 C-1.15299579 25.38227611 -0.71462926 20.79971814 -0.875 15.875 C-1.205 15.875 -1.535 15.875 -1.875 15.875 Z " fill="#EFEFEF" transform="translate(111.875,170.125)"/>
<path d="M0 0 C2.3125 0.9375 2.3125 0.9375 4.3125 2.9375 C4.64583333 8.27083333 4.64583333 8.27083333 3.3125 10.9375 C2.6525 10.9375 1.9925 10.9375 1.3125 10.9375 C1.03148437 11.80761719 0.75046875 12.67773438 0.4609375 13.57421875 C-0.60395175 16.69282297 -1.80881851 19.70363383 -3.0625 22.75 C-7.6925875 34.76357023 -10.29503481 47.05750596 -10.6875 59.9375 C-10.71585937 60.76507813 -10.74421875 61.59265625 -10.7734375 62.4453125 C-10.8895913 66.31994396 -10.8895913 66.31994396 -9.6875 69.9375 C-4.77856586 69.9375 -2.3220499 69.04143584 1.25 65.625 C12.93312408 52.92693271 20.21844146 37.73380776 23.85205078 21.03125 C24.65905316 17.361657 25.54670672 13.71247897 26.4375 10.0625 C26.67569458 9.03600342 26.67569458 9.03600342 26.91870117 7.98876953 C28.08587455 3.16412545 28.08587455 3.16412545 30.3125 0.9375 C33.60964793 1.26721479 34.9351839 1.5601839 37.3125 3.9375 C38.3266587 20.16403917 31.28473913 37.66666161 24.3125 51.9375 C23.6525 51.9375 22.9925 51.9375 22.3125 51.9375 C22.06886719 52.80503906 21.82523437 53.67257813 21.57421875 54.56640625 C17.9687893 64.19948865 9.75634943 72.24974077 2.0625 78.875 C-2.51565029 80.64383079 -6.86599475 80.76641208 -11.6875 79.9375 C-16.24589449 77.76526869 -18.79081906 74.45289325 -20.625 69.8125 C-25.9453925 49.88581255 -17.2967992 22.60844685 -7.6875 4.9375 C-3.32818692 -0.0773997 -3.32818692 -0.0773997 0 0 Z " fill="#EEEEEE" transform="translate(273.6875,172.0625)"/>
<path d="M0 0 C2.475 0.99 2.475 0.99 5 2 C5.98250647 6.11006632 6.40634683 8.22424696 4.41015625 12.03515625 C3.63542969 13.03417969 2.86070312 14.03320312 2.0625 15.0625 C1.2171724 16.20655735 0.37613446 17.35379473 -0.4609375 18.50390625 C-0.88858398 19.08543457 -1.31623047 19.66696289 -1.75683594 20.26611328 C-11.17329395 33.39959419 -21.40161973 53.34897858 -20.875 69.9375 C-20.34682414 73.05669821 -20.34682414 73.05669821 -18.19140625 74.171875 C-11.22484246 76.80451586 -3.7859615 74.40482836 3.08203125 72.55859375 C5.89323336 72.02043859 7.3528645 72.03216111 10 73 C10.33 74.32 10.66 75.64 11 77 C3.46009794 84.15324041 -4.2289911 85.70770582 -14.546875 85.484375 C-20.83589446 84.60220485 -25.84763261 81.78114888 -29.73828125 76.75390625 C-33.2885124 69.00494971 -31.56926506 58.67975229 -29.0625 50.8125 C-28.07657099 48.1870486 -27.05928588 45.59489494 -26 43 C-25.68353516 42.19369141 -25.36707031 41.38738281 -25.04101562 40.55664062 C-21.29040417 31.03365954 -17.24131953 21.79632706 -11.875 13.0625 C-11.49190674 12.43093994 -11.10881348 11.79937988 -10.71411133 11.14868164 C-7.78689325 6.60160062 -4.24576773 3.32267532 0 0 Z " fill="#F0F0F0" transform="translate(381,169)"/>
<path d="M0 0 C2 3 2 3 2 5.1875 C1.04526166 7.87270158 0.17820793 9.18844317 -1.5625 11.375 C-6.28651045 17.38221521 -9.56959066 24.20408095 -13 31 C-13.47695313 31.92941406 -13.95390625 32.85882813 -14.4453125 33.81640625 C-17.0981736 39.28063272 -19.0398709 44.88993062 -20.8125 50.6875 C-21.03188232 51.38858887 -21.25126465 52.08967773 -21.47729492 52.81201172 C-22.89744283 57.68420264 -23.19925587 61.92751476 -23 67 C-22.25314941 66.98952637 -21.50629883 66.97905273 -20.73681641 66.96826172 C-17.36624492 66.9267923 -13.995727 66.90070271 -10.625 66.875 C-9.449375 66.85824219 -8.27375 66.84148437 -7.0625 66.82421875 C-5.38027344 66.81455078 -5.38027344 66.81455078 -3.6640625 66.8046875 C-2.62717285 66.79421387 -1.5902832 66.78374023 -0.52197266 66.77294922 C2 67 2 67 4 69 C3.625 71.625 3.625 71.625 3 74 C-3.96415315 76.25429235 -10.64685105 77.33658045 -17.9375 77.4375 C-18.6586499 77.45941406 -19.3797998 77.48132813 -20.12280273 77.50390625 C-23.55723215 77.49108075 -25.81297976 77.10557176 -28.81640625 75.41015625 C-32.34800237 71.51213334 -33.92335491 67.89203875 -34.13671875 62.625 C-31.40404189 40.57348583 -22.55592664 17.92756438 -8 1 C-5.21136993 -0.39431504 -3.07921132 -0.25660094 0 0 Z " fill="#EEEEEE" transform="translate(339,175)"/>
<path d="M0 0 C2.65354734 2.65354734 2.62149324 4.28566623 3 8 C2.89631012 10.61028002 2.73173838 13.14822229 2.4765625 15.7421875 C2.41093109 16.46938995 2.34529968 17.19659241 2.27767944 17.9458313 C2.06725053 20.25627573 1.84614236 22.56555913 1.625 24.875 C1.48370454 26.4179075 1.3430735 27.96087599 1.203125 29.50390625 C0.1625464 40.82924163 0.1625464 40.82924163 -0.52954102 46.09619141 C-0.94845337 49.57227261 -1.1940153 52.97186563 -1.31640625 56.46875 C-1.35830078 57.61601562 -1.40019531 58.76328125 -1.44335938 59.9453125 C-1.50233398 61.70488281 -1.50233398 61.70488281 -1.5625 63.5 C-1.60568359 64.70398438 -1.64886719 65.90796875 -1.69335938 67.1484375 C-1.79873168 70.09886193 -1.90085903 73.04936071 -2 76 C-4.52171907 73.47828093 -4.24681425 71.90517393 -4.27789307 68.46418762 C-4.27182037 67.33142647 -4.27182037 67.33142647 -4.265625 66.17578125 C-4.26753845 65.39615524 -4.2694519 64.61652924 -4.27142334 63.8132782 C-4.27278595 62.15977659 -4.26908419 60.50626432 -4.26074219 58.8527832 C-4.25011526 56.3397565 -4.26059716 53.82745645 -4.2734375 51.31445312 C-4.27211451 49.7057276 -4.26954924 48.09700253 -4.265625 46.48828125 C-4.26967346 45.7432283 -4.27372192 44.99817535 -4.27789307 44.23054504 C-4.2359244 39.47893415 -3.36450737 35.58331187 -2 31 C-1.72008385 28.51853165 -1.51200926 26.02815943 -1.3671875 23.53515625 C-1.30484421 22.51789711 -1.30484421 22.51789711 -1.24124146 21.48008728 C-1.11183015 19.34125139 -0.99322998 17.20198004 -0.875 15.0625 C-0.78847843 13.60086878 -0.70124537 12.13927949 -0.61328125 10.67773438 C-0.40063499 7.11893657 -0.19767087 3.55966467 0 0 Z " fill="#CCCCCC" transform="translate(119,175)"/>
<path d="M0 0 C0.89589844 0.00322266 1.79179687 0.00644531 2.71484375 0.00976562 C4.12056641 0.02233398 4.12056641 0.02233398 5.5546875 0.03515625 C6.49957031 0.03966797 7.44445312 0.04417969 8.41796875 0.04882812 C10.75527137 0.06063268 13.09244811 0.07709866 15.4296875 0.09765625 C16.40348236 5.21557059 16.37927034 9.00443918 15.4296875 14.09765625 C14.7696875 14.42765625 14.1096875 14.75765625 13.4296875 15.09765625 C13.4296875 10.80765625 13.4296875 6.51765625 13.4296875 2.09765625 C7.8196875 2.09765625 2.2096875 2.09765625 -3.5703125 2.09765625 C-4.4365625 3.99515625 -5.3028125 5.89265625 -6.1953125 7.84765625 C-8.36388827 12.53424653 -10.55552883 17.20652322 -12.8203125 21.84765625 C-13.53960937 23.32492188 -13.53960937 23.32492188 -14.2734375 24.83203125 C-15.5703125 27.09765625 -15.5703125 27.09765625 -17.5703125 28.09765625 C-16.95088693 23.65285924 -15.2648997 20.24531573 -13.1953125 16.28515625 C-11.16340355 12.35467112 -9.22088005 8.46968104 -7.7578125 4.28515625 C-6.05449715 -0.28690073 -4.50597401 -0.02851882 0 0 Z " fill="#A4A4A4" transform="translate(482.5703125,225.90234375)"/>
<path d="M0 0 C0.33 0 0.66 0 1 0 C0.88623383 2.12563103 0.75864369 4.2505261 0.625 6.375 C0.55539062 7.55835938 0.48578125 8.74171875 0.4140625 9.9609375 C0 13 0 13 -2 15 C-3.89953399 20.2668897 -4.25731409 24.8752192 -4.125 30.4375 C-4.11597656 31.16904297 -4.10695313 31.90058594 -4.09765625 32.65429688 C-4.07436153 34.43634298 -4.0385019 36.21821759 -4 38 C-3.34 38 -2.68 38 -2 38 C-2 38.99 -2 39.98 -2 41 C-2.66 41 -3.32 41 -4 41 C-8.33782244 35.45013893 -7.74637879 28.87663639 -7.27636719 22.17822266 C-6.51555068 16.18175191 -4.24171569 10.57711692 -2 5 C-1.61585938 4.03449219 -1.23171875 3.06898438 -0.8359375 2.07421875 C-0.56007813 1.38972656 -0.28421875 0.70523438 0 0 Z " fill="#B0B1B0" transform="translate(357,207)"/>
<path d="M0 0 C0.33 0 0.66 0 1 0 C0.61004131 5.45942171 -0.43465051 9.01417592 -2.94384766 13.84570312 C-4.63166394 17.28844258 -5.83676744 20.87236023 -7.0625 24.5 C-7.55258564 25.92735819 -8.0434686 27.35444287 -8.53515625 28.78125 C-8.77250488 29.4721875 -9.00985352 30.163125 -9.25439453 30.875 C-10.44623184 34.27177535 -11.72277713 37.63449879 -13 41 C-13.66 41 -14.32 41 -15 41 C-14.35320745 36.1224232 -12.98242268 31.66907378 -11.3125 27.0625 C-11.04920898 26.32757324 -10.78591797 25.59264648 -10.51464844 24.83544922 C-3.35390735 5.03086102 -3.35390735 5.03086102 0 0 Z " fill="#939393" transform="translate(422,169)"/>
<path d="M0 0 C0.33 0 0.66 0 1 0 C1.05410687 1.77049689 1.09284119 3.54146849 1.125 5.3125 C1.14820313 6.29863281 1.17140625 7.28476563 1.1953125 8.30078125 C1 11 1 11 -1 14 C-1.53271483 16.10040319 -1.99011404 18.22032334 -2.40234375 20.34765625 C-2.65306641 21.59224609 -2.90378906 22.83683594 -3.16210938 24.11914062 C-3.55276814 26.09557365 -3.93944955 28.07263345 -4.32006836 30.05102539 C-4.6908898 31.96452104 -5.07764451 33.87490734 -5.46484375 35.78515625 C-5.687771 36.92863525 -5.91069824 38.07211426 -6.14038086 39.25024414 C-7 42 -7 42 -10 44 C-7.78638863 29.05285275 -3.92652647 14.57664547 0 0 Z " fill="#9FA09F" transform="translate(406,210)"/>
<path d="M0 0 C0.33 0 0.66 0 1 0 C0.65527912 7.23913854 -0.92963685 13.56484961 -3.05029297 20.43896484 C-5.12463276 27.21935947 -6.64288947 34.03791264 -8 41 C-9.32 40.67 -10.64 40.34 -12 40 C-11.01 40 -10.02 40 -9 40 C-9.19464844 39.15179688 -9.38929688 38.30359375 -9.58984375 37.4296875 C-10.05048676 33.57783448 -9.51790015 30.87016858 -8.5625 27.125 C-8.27503906 25.97257812 -7.98757813 24.82015625 -7.69140625 23.6328125 C-7.34916016 22.32957031 -7.34916016 22.32957031 -7 21 C-6.34 21 -5.68 21 -5 21 C-5.0825 20.05125 -5.165 19.1025 -5.25 18.125 C-5.27667791 13.7587156 -3.70742046 10.28032973 -1.97265625 6.33203125 C-1.09346623 4.22409374 -0.48625376 2.22653037 0 0 Z " fill="#9D9E9D" transform="translate(455,213)"/>
<path d="M0 0 C0.33 0 0.66 0 1 0 C1.4379298 7.41402234 0.32448764 13.37810941 -2.0625 20.375 C-2.64599451 22.10888522 -3.22060526 23.84579211 -3.78515625 25.5859375 C-4.04176025 26.3392334 -4.29836426 27.0925293 -4.56274414 27.86865234 C-5.06002765 30.2925971 -4.76326637 31.67086354 -4 34 C-3.66666667 35.33333333 -3.33333333 36.66666667 -3 38 C-4.65 37.01 -6.3 36.02 -8 35 C-7.22981827 30.05669072 -6.21365711 25.19293543 -5.125 20.3125 C-4.86154785 19.12744873 -4.86154785 19.12744873 -4.59277344 17.91845703 C-3.23726941 11.89495137 -1.72402333 5.9295954 0 0 Z " fill="#939393" transform="translate(445,216)"/>
<path d="M0 0 C1.32 0.33 2.64 0.66 4 1 C3.62488281 1.51046875 3.24976562 2.0209375 2.86328125 2.546875 C-0.86303368 7.84068261 -3.39487125 13.10172709 -5.765625 19.11328125 C-7.45271702 23.05872745 -9.60742135 26.44531171 -12 30 C-12.82707306 27.63011757 -13.12634 26.38269269 -12.328125 23.96484375 C-11.97234375 23.29582031 -11.6165625 22.62679687 -11.25 21.9375 C-10.90453125 21.26589844 -10.5590625 20.59429687 -10.203125 19.90234375 C-9 18 -9 18 -7.43359375 16.484375 C-5.12773752 14.09683994 -4.77373715 11.15446683 -4 8 C-3.34 8 -2.68 8 -2 8 C-1.7834375 6.576875 -1.7834375 6.576875 -1.5625 5.125 C-1 2 -1 2 0 0 Z " fill="#949594" transform="translate(83,224)"/>
<path d="M0 0 C2.88199113 2.60308876 4.35450766 4.17362788 5 8 C5.48073463 18.33579451 4.69889716 28.69126682 4 39 C3.67 39 3.34 39 3 39 C2.82992015 36.04182554 2.66306615 33.08356446 2.5 30.125 C2.45157959 29.25109619 2.40315918 28.37719238 2.35327148 27.47680664 C2.12315876 23.11927525 1.95706879 18.80235216 2.0625 14.4375 C2.14129228 9.4735862 1.14658993 4.81158274 0 0 Z " fill="#AAAAAA" transform="translate(506,174)"/>
<path d="M0 0 C0.66 0 1.32 0 2 0 C-0.31124499 11.00481116 -2.63284065 22.00705546 -5 33 C-5.33 33 -5.66 33 -6 33 C-6.47384084 24.83940773 -5.83550948 18.3384583 -2.953125 10.67578125 C-1.79417306 7.42216617 -1.37969119 4.41722068 -1 1 C-0.67 0.67 -0.34 0.34 0 0 Z " fill="#A7A7A7" transform="translate(412,222)"/>
<path d="M0 0 C0.99 0.33 1.98 0.66 3 1 C2.45730469 2.12277344 1.91460937 3.24554688 1.35546875 4.40234375 C-3.94842463 15.44943526 -3.94842463 15.44943526 -8 27 C-8.66 26.67 -9.32 26.34 -10 26 C-9.50269348 21.02693484 -8.44697666 17.36200187 -6 13 C-5.34 13 -4.68 13 -4 13 C-3.87882812 12.39671875 -3.75765625 11.7934375 -3.6328125 11.171875 C-3.38144531 9.97304687 -3.38144531 9.97304687 -3.125 8.75 C-2.96257812 7.96109375 -2.80015625 7.1721875 -2.6328125 6.359375 C-2.00849925 4.03168856 -1.15161458 2.10968048 0 0 Z " fill="#C7C7C7" transform="translate(326,199)"/>
<path d="M0 0 C1.65 0 3.3 0 5 0 C4.01 0.66 3.02 1.32 2 2 C0.75055625 4.68610102 0.75055625 4.68610102 -0.26171875 7.8828125 C-0.65810547 9.04941406 -1.05449219 10.21601563 -1.46289062 11.41796875 C-1.86701172 12.64128906 -2.27113281 13.86460937 -2.6875 15.125 C-3.31108398 16.97158203 -3.31108398 16.97158203 -3.94726562 18.85546875 C-4.97413288 21.90066131 -5.99125211 24.94876696 -7 28 C-7.33 28 -7.66 28 -8 28 C-7.55920853 18.03811279 -4.84647258 8.72365064 0 0 Z " fill="#ADADAD" transform="translate(216,181)"/>
<path d="M0 0 C0.33 0 0.66 0 1 0 C1.39046906 5.72687957 0.23983603 10.60544086 -1.24609375 16.1328125 C-1.93281312 18.74448099 -2.49956319 21.34719903 -3 24 C-3.66 24 -4.32 24 -5 24 C-5.33 24.99 -5.66 25.98 -6 27 C-7.27556563 23.17330311 -6.45512737 21.66444437 -5.1875 17.875 C-3.89020667 13.87128438 -2.68305963 9.93091672 -1.8125 5.8125 C-1 2 -1 2 0 0 Z " fill="#A2A2A2" transform="translate(457,175)"/>
<path d="M0 0 C0.763125 0.33 1.52625 0.66 2.3125 1 C4.99069135 2.17436686 4.99069135 2.17436686 8 2 C8.66 1.67 9.32 1.34 10 1 C10 1.66 10 2.32 10 3 C11.65 3 13.3 3 15 3 C9.18201759 6.87865494 2.33367659 6.80124246 -4.4296875 5.55078125 C-6.29913325 5.0817566 -8.15202725 4.54754748 -10 4 C-10 3.67 -10 3.34 -10 3 C-6.37 3 -2.74 3 1 3 C0.67 2.01 0.34 1.02 0 0 Z " fill="#BFC0C0" transform="translate(396,255)"/>
<path d="M0 0 C0.66 0 1.32 0 2 0 C2.72505323 9.36095507 3.12657025 18.60567451 3 28 C3 28.99 3 29.98 3 31 C2.01 30.34 1.02 29.68 0 29 C-0.34057617 26.11083984 -0.34057617 26.11083984 -0.29296875 22.4609375 C-0.28330078 21.15898437 -0.27363281 19.85703125 -0.26367188 18.515625 C-0.23860388 17.13541077 -0.21320902 15.75520244 -0.1875 14.375 C-0.17245517 12.98699337 -0.15876641 11.59897133 -0.14648438 10.2109375 C-0.1110257 6.80690491 -0.06160298 3.40364378 0 0 Z " fill="#A0A0A0" transform="translate(106,220)"/>
<path d="M0 0 C0.33 0 0.66 0 1 0 C1.37616822 6.39485981 1.37616822 6.39485981 -0.4375 9.3125 C-2.45154214 12.77665248 -2.53695295 15.74559616 -2.7890625 19.6953125 C-3 22 -3 22 -4 25 C-5.5625 23.875 -5.5625 23.875 -7 22 C-6.56860439 16.88488059 -4.78363376 12.36241053 -2.9375 7.625 C-2.65583984 6.88894531 -2.37417969 6.15289062 -2.08398438 5.39453125 C-1.39433382 3.5944264 -0.69786068 1.7969379 0 0 Z " fill="#999999" transform="translate(129,221)"/>
<path d="M0 0 C0 3.23100269 -0.67258978 5.21667585 -1.75 8.25 C-4.20647059 15.40885716 -6.11855855 22.67438754 -8 30 C-8.33 30 -8.66 30 -9 30 C-9.34900139 23.60164122 -8.22824251 18.95878426 -6 13 C-5.45216445 11.37706932 -4.91033349 9.75209736 -4.375 8.125 C-3.58333333 5.75 -2.79166667 3.375 -2 1 C-1.34 0.67 -0.68 0.34 0 0 Z " fill="#AEAEAE" transform="translate(207,209)"/>
<path d="M0 0 C0.66 0 1.32 0 2 0 C0.25740319 12.66970387 0.25740319 12.66970387 -3 18 C-3.66 18 -4.32 18 -5 18 C-5 18.99 -5 19.98 -5 21 C-5.66 21 -6.32 21 -7 21 C-6.80664062 20.43152344 -6.61328125 19.86304688 -6.4140625 19.27734375 C-4.55955452 13.77808493 -2.77616652 8.27714753 -1.4375 2.625 C-1 1 -1 1 0 0 Z " fill="#DBDBDB" transform="translate(148,173)"/>
<path d="M0 0 C0.66 0 1.32 0 2 0 C0.5884912 6.74721229 -0.73014133 12.88678597 -4 19 C-4.78784564 21.65046836 -5.39463525 24.2991419 -6 27 C-6.33 27 -6.66 27 -7 27 C-7 24.03 -7 21.06 -7 18 C-6.34 18 -5.68 18 -5 18 C-5 16.68 -5 15.36 -5 14 C-4.34 14 -3.68 14 -3 14 C-2.95101563 13.32453125 -2.90203125 12.6490625 -2.8515625 11.953125 C-2.73941406 10.61507812 -2.73941406 10.61507812 -2.625 9.25 C-2.55539062 8.36828125 -2.48578125 7.4865625 -2.4140625 6.578125 C-2.00149945 4.00933618 -1.28839043 2.24158985 0 0 Z " fill="#ACACAC" transform="translate(463,184)"/>
<path d="M0 0 C0.99 0.33 1.98 0.66 3 1 C2.09524283 7.71140769 0.8347372 13.05538241 -4 18 C-6.8125 19.9375 -6.8125 19.9375 -9 21 C-7.08009607 16.98396908 -4.7156997 13.29353962 -2.33984375 9.53515625 C-0.98857239 6.9783775 -0.41254475 4.8470681 0 2 C-0.66 1.67 -1.32 1.34 -2 1 C-1.34 0.67 -0.68 0.34 0 0 Z " fill="#C9C9C9" transform="translate(171,179)"/>
<path d="M0 0 C2.62880939 2.62880939 2.60186944 4.33851772 3 8 C2.95242143 10.02084584 2.83661356 12.04099824 2.66015625 14.0546875 C2.56669922 15.16328125 2.47324219 16.271875 2.37695312 17.4140625 C2.27318359 18.55617187 2.16941406 19.69828125 2.0625 20.875 C1.96259766 22.0403125 1.86269531 23.205625 1.75976562 24.40625 C1.51316785 27.27148133 1.25970517 30.13593198 1 33 C0.67 33 0.34 33 0 33 C0 22.11 0 11.22 0 0 Z " fill="#9A9A9A" transform="translate(119,175)"/>
<path d="M0 0 C1.80013606 3.60027211 0.94707444 8.16540891 0.78515625 12.14648438 C0.63766477 16.36269575 0.63766477 16.36269575 2.5078125 20.00390625 C3.00023437 20.33261719 3.49265625 20.66132813 4 21 C1.0625 20.625 1.0625 20.625 -2 20 C-3.49670238 17.00659525 -2.91822445 14.43778989 -2.6875 11.125 C-2.60886719 9.89007813 -2.53023438 8.65515625 -2.44921875 7.3828125 C-2.050367 4.3792854 -1.56626301 2.54437827 0 0 Z " fill="#CDCCCD" transform="translate(497,240)"/>
<path d="M0 0 C0.66 0.33 1.32 0.66 2 1 C2.12539185 8.39811912 2.12539185 8.39811912 1.53125 11.25 C0.82103882 14.9263873 0.6410526 18.5784777 0.4375 22.3125 C0.39431641 23.05306641 0.35113281 23.79363281 0.30664062 24.55664062 C0.20129568 26.37091464 0.10021684 28.1854355 0 30 C-0.33 30 -0.66 30 -1 30 C-2.54740061 8.99082569 -2.54740061 8.99082569 0 0 Z " fill="#A7A7A7" transform="translate(507,212)"/>
<path d="M0 0 C3.08238235 2.77414411 4.98522814 4.94091256 6 9 C6.08135095 13.44718547 5.48252521 16.29814515 2.9375 20 C1.9784375 20.99 1.9784375 20.99 1 22 C1.95330739 16.14396887 1.95330739 16.14396887 2.75 13.6875 C3.08785011 10.05561128 1.95796336 7.36766008 0.69140625 3.98828125 C0 2 0 2 0 0 Z " fill="#BDBDBD" transform="translate(175,174)"/>
<path d="M0 0 C2.5 0.125 2.5 0.125 5 1 C6.3125 3.0625 6.3125 3.0625 7 5 C4.03 4.505 4.03 4.505 1 4 C0.01 7.3 -0.98 10.6 -2 14 C-2.66 14 -3.32 14 -4 14 C-3.71831703 12.04020573 -3.42433283 10.08217622 -3.125 8.125 C-2.96257812 7.03445312 -2.80015625 5.94390625 -2.6328125 4.8203125 C-2 2 -2 2 0 0 Z " fill="#CDCECE" transform="translate(304,173)"/>
<path d="M0 0 C0.66 0.33 1.32 0.66 2 1 C1.28374315 4.95048883 0.24073201 8.72546518 -0.9375 12.5625 C-1.27652344 13.67753906 -1.61554688 14.79257813 -1.96484375 15.94140625 C-2.81383861 18.44994578 -3.73613541 20.68197032 -5 23 C-6.99108752 17.02673744 -4.37764434 12.51613487 -2 7 C-1.25837921 4.68017399 -0.62486828 2.35527276 0 0 Z " fill="#B4B5B5" transform="translate(364,212)"/>
<path d="M0 0 C3 2 3 2 3.6875 4.0625 C4.40669064 10.82289201 4.19862916 16.54152686 2 23 C1.34 23 0.68 23 0 23 C0.2475 21.2984375 0.2475 21.2984375 0.5 19.5625 C1.32077275 12.93769139 1.34596745 6.56159131 0 0 Z " fill="#C9C9C9" transform="translate(235,188)"/>
<path d="M0 0 C-1.55697317 4.88323403 -3.22191486 9.71585736 -5.0625 14.5 C-5.38347656 15.3353125 -5.70445312 16.170625 -6.03515625 17.03125 C-7 19 -7 19 -9 20 C-8.40750664 17.41348078 -7.80158701 14.83139849 -7.1875 12.25 C-7.02185547 11.52039063 -6.85621094 10.79078125 -6.68554688 10.0390625 C-4.26704545 0 -4.26704545 0 0 0 Z " fill="#CBCBCB" transform="translate(497,183)"/>
<path d="M0 0 C4.95 0 9.9 0 15 0 C15.94215879 5.65295276 16.01144655 8.57496851 15 14 C14.01 14.495 14.01 14.495 13 15 C13 10.71 13 6.42 13 2 C8.71 1.67 4.42 1.34 0 1 C0 0.67 0 0.34 0 0 Z " fill="#7C7C7C" transform="translate(483,226)"/>
<path d="M0 0 C0.33 0 0.66 0 1 0 C0.65259661 7.85131668 -1.28451906 14.64925625 -4 22 C-4.33 22 -4.66 22 -5 22 C-5.44948768 15.93191628 -4.43983609 11.85024037 -1.97265625 6.296875 C-1.08507198 4.20089288 -0.4835107 2.21905965 0 0 Z " fill="#979898" transform="translate(455,213)"/>
<path d="M0 0 C0.33 0 0.66 0 1 0 C1.44693406 5.36320874 0.59163937 8.50960687 -2.02734375 13.203125 C-3.14320533 15.14043364 -3.14320533 15.14043364 -4 18 C-4.99 18.33 -5.98 18.66 -7 19 C-4.94235079 12.54646385 -2.57616518 6.2638737 0 0 Z " fill="#B2B2B2" transform="translate(205,187)"/>
<path d="M0 0 C0.66 0.33 1.32 0.66 2 1 C0.87540329 2.77108948 -0.24969203 4.54186236 -1.375 6.3125 C-2.00148438 7.29863281 -2.62796875 8.28476563 -3.2734375 9.30078125 C-4.49651613 11.21287929 -5.7409356 13.1114034 -7 15 C-7.66 15 -8.32 15 -9 15 C-9 15.66 -9 16.32 -9 17 C-9.66 16.67 -10.32 16.34 -11 16 C-9.92044741 14.26847042 -8.83617488 12.53988316 -7.75 10.8125 C-7.14671875 9.84957031 -6.5434375 8.88664063 -5.921875 7.89453125 C-4.08362455 5.12594673 -2.11574051 2.56042049 0 0 Z " fill="#C1C1C1" transform="translate(331,176)"/>
<path d="M0 0 C1 3 1 3 -0.25 5.75 C-0.8275 6.8225 -1.405 7.895 -2 9 C-2.48511895 10.26857308 -2.96434196 11.53941731 -3.4375 12.8125 C-5 16 -5 16 -7.1875 16.9375 C-8.0846875 16.9684375 -8.0846875 16.9684375 -9 17 C-7.46933687 11.18348012 -4.32262613 4.32262613 0 0 Z " fill="#ACACAC" transform="translate(91,197)"/>
<path d="M0 0 C0.66 0 1.32 0 2 0 C2.22742222 6.14040005 1.86360591 12.09858129 0 18 C-0.66 18.33 -1.32 18.66 -2 19 C-1.85761163 16.95809019 -1.71092972 14.91647955 -1.5625 12.875 C-1.48128906 11.73804688 -1.40007812 10.60109375 -1.31640625 9.4296875 C-1.02269035 6.2459522 -0.56875687 3.14489093 0 0 Z " fill="#B9B9BA" transform="translate(504,242)"/>
<path d="M0 0 C0.33 0.99 0.66 1.98 1 3 C0.01 3.33 -0.98 3.66 -2 4 C-1.938125 4.721875 -1.87625 5.44375 -1.8125 6.1875 C-2.09722944 10.45844161 -4.0281492 13.0281492 -7 16 C-7.80867674 13.66266335 -8.12401827 12.38955431 -7.36328125 10 C-5.30982701 6.09156665 -3.40701943 2.92030237 0 0 Z " fill="#999999" transform="translate(81,214)"/>
<path d="M0 0 C0.66 0.33 1.32 0.66 2 1 C1.67 6.28 1.34 11.56 1 17 C0.01 17.33 -0.98 17.66 -2 18 C-1.34 12.06 -0.68 6.12 0 0 Z " fill="#ACACAC" transform="translate(110,193)"/>
<path d="M0 0 C0.33 0 0.66 0 1 0 C1.41640288 7.2484945 0.44166784 13.16914355 -2 20 C-2.33 20 -2.66 20 -3 20 C-3.35482211 12.78528371 -2.1591338 6.87581298 0 0 Z " fill="#B2B2B2" transform="translate(445,216)"/>
<path d="M0 0 C0.33 0 0.66 0 1 0 C0.88623383 2.12563103 0.75864369 4.2505261 0.625 6.375 C0.55539062 7.55835938 0.48578125 8.74171875 0.4140625 9.9609375 C0 13 0 13 -2 15 C-2.69748583 16.31747324 -3.36959957 17.64914193 -4 19 C-3.63176001 12.09232563 -2.76081837 6.3618858 0 0 Z " fill="#E7E9E8" transform="translate(357,207)"/>
<path d="M0 0 C1.99954746 -0.04254356 4.00041636 -0.04080783 6 0 C6.33 0.33 6.66 0.66 7 1 C8.51469448 1.23192865 10.03754562 1.41215238 11.5625 1.5625 C12.38878906 1.64628906 13.21507812 1.73007812 14.06640625 1.81640625 C14.70449219 1.87699219 15.34257812 1.93757813 16 2 C16 2.33 16 2.66 16 3 C9.07 3 2.14 3 -5 3 C-5 2.67 -5 2.34 -5 2 C-3.35 2 -1.7 2 0 2 C0 1.34 0 0.68 0 0 Z " fill="#9B9B9B" transform="translate(431,268)"/>
<path d="M0 0 C1.32 0.33 2.64 0.66 4 1 C3.06398754 2.41764994 2.1261208 3.83407568 1.1875 5.25 C0.66542969 6.03890625 0.14335938 6.8278125 -0.39453125 7.640625 C-1.87134122 9.81092481 -3.40689873 11.91413768 -5 14 C-5 12.35 -5 10.7 -5 9 C-4.01 8.67 -3.02 8.34 -2 8 C-1.7834375 6.576875 -1.7834375 6.576875 -1.5625 5.125 C-1 2 -1 2 0 0 Z " fill="#B1B1B1" transform="translate(83,224)"/>
<path d="M0 0 C1 4 1 4 -0.109375 6.359375 C-0.65078125 7.14828125 -1.1921875 7.9371875 -1.75 8.75 C-2.54664063 9.94882813 -2.54664063 9.94882813 -3.359375 11.171875 C-3.90078125 11.77515625 -4.4421875 12.3784375 -5 13 C-5.99 13 -6.98 13 -8 13 C-5.36 8.71 -2.72 4.42 0 0 Z " fill="#BABABA" transform="translate(374,175)"/>
<path d="M0 0 C0.33 0 0.66 0 1 0 C1.29341888 5.67276511 1.00559652 8.99067246 -2 14 C-2.99 13.67 -3.98 13.34 -5 13 C-3.35 8.71 -1.7 4.42 0 0 Z " fill="#B5B5B5" transform="translate(474,210)"/>
<path d="M0 0 C0.33 0 0.66 0 1 0 C1 2.64 1 5.28 1 8 C0.01 8.495 0.01 8.495 -1 9 C-2.13350534 11.01669827 -2.13350534 11.01669827 -3 13 C-3.66 12.67 -4.32 12.34 -5 12 C-4.54738642 10.56068883 -4.08767021 9.12361001 -3.625 7.6875 C-3.24214844 6.48673828 -3.24214844 6.48673828 -2.8515625 5.26171875 C-2 3 -2 3 0 0 Z " fill="#B3B3B3" transform="translate(365,190)"/>
<path d="M0 0 C0.99 0.33 1.98 0.66 3 1 C2.21447823 2.96080624 1.42137877 4.91857816 0.625 6.875 C0.18414062 7.96554688 -0.25671875 9.05609375 -0.7109375 10.1796875 C-2 13 -2 13 -4 15 C-4.90425521 12.49326721 -5.09182674 11.28321301 -4.2578125 8.7109375 C-3.69707031 7.55464844 -3.69707031 7.55464844 -3.125 6.375 C-2.75632813 5.59898437 -2.38765625 4.82296875 -2.0078125 4.0234375 C-1.33957266 2.68177767 -0.6703127 1.3406254 0 0 Z " fill="#9E9E9E" transform="translate(140,218)"/>
<path d="M0 0 C2.95861968 3.41732041 2.95861968 3.41732041 3.14453125 6.03515625 C3.03496094 6.70417969 2.92539063 7.37320313 2.8125 8.0625 C2.66748047 9.06990234 2.66748047 9.06990234 2.51953125 10.09765625 C2 12 2 12 0 15 C-1.5111995 9.96266834 -0.64599773 5.11828973 0 0 Z " fill="#A6A7A7" transform="translate(176,219)"/>
<path d="M0 0 C0 3.74016583 -0.9341591 4.45276193 -3.375 7.1875 C-4.00148437 7.90292969 -4.62796875 8.61835938 -5.2734375 9.35546875 C-7 11 -7 11 -9 11 C-9 8 -9 8 -6.75 5.5 C-4.56458892 3.51326265 -2.41145588 1.69695043 0 0 Z " fill="#B7B7B7" transform="translate(175,196)"/>
<path d="M0 0 C0.33 0 0.66 0 1 0 C1.78287497 6.10642479 -0.89174849 10.00459579 -4 15 C-4.66 14.67 -5.32 14.34 -6 14 C-5.18836991 12.04130597 -4.37566899 10.08305564 -3.5625 8.125 C-3.11003906 7.03445312 -2.65757812 5.94390625 -2.19140625 4.8203125 C-1.50456537 3.19441376 -0.78934113 1.57868226 0 0 Z " fill="#A2A2A2" transform="translate(481,194)"/>
<path d="M0 0 C0 3.63464176 -1.22616282 4.90210924 -3.5625 7.5703125 C-5.99728176 9.99186175 -8.48791623 12 -12 12 C-12 11.34 -12 10.68 -12 10 C-11.01 10 -10.02 10 -9 10 C-9 9.34 -9 8.68 -9 8 C-8.01 8 -7.02 8 -6 8 C-5.34 6.68 -4.68 5.36 -4 4 C-3.34 4 -2.68 4 -2 4 C-2 3.01 -2 2.02 -2 1 C-1.34 0.67 -0.68 0.34 0 0 Z " fill="#ABABAB" transform="translate(172,241)"/>
<path d="M0 0 C0.66 0 1.32 0 2 0 C0.68 6.27 -0.64 12.54 -2 19 C-2.33 19 -2.66 19 -3 19 C-3.19946435 12.71687298 -2.84752843 7.04155282 -1 1 C-0.67 0.67 -0.34 0.34 0 0 Z " fill="#8D8D8D" transform="translate(412,222)"/>
<path d="M0 0 C0.66 0.66 1.32 1.32 2 2 C-1.28519475 3.09506492 -3.73663415 3.09960608 -7.1875 3.0625 C-8.81751953 3.04896484 -8.81751953 3.04896484 -10.48046875 3.03515625 C-11.31191406 3.02355469 -12.14335938 3.01195312 -13 3 C-13 2.67 -13 2.34 -13 2 C-8.51023509 0.24789662 -4.81989758 -0.37076135 0 0 Z " fill="#BABABA" transform="translate(81,279)"/>
<path d="M0 0 C3.375 4.5 3.375 4.5 3.1875 8.75 C3.16042969 9.54921875 3.13335937 10.3484375 3.10546875 11.171875 C3.07066406 11.77515625 3.03585938 12.3784375 3 13 C2.01 12.67 1.02 12.34 0 12 C0 8.04 0 4.08 0 0 Z " fill="#BABABA" transform="translate(252,225)"/>
<path d="M0 0 C0.99 0 1.98 0 3 0 C2.34 2.31 1.68 4.62 1 7 C1.99 7.33 2.98 7.66 4 8 C2.35 8.66 0.7 9.32 -1 10 C-2.15837626 5.94568308 -1.83691257 3.78187881 0 0 Z " fill="#BABABA" transform="translate(146,201)"/>
<path d="M0 0 C0.66 0 1.32 0 2 0 C0.23570801 4.97209562 -2.3939166 9.43438061 -5 14 C-6 11 -6 11 -5 8 C-4.34 8 -3.68 8 -3 8 C-2.87625 7.05125 -2.7525 6.1025 -2.625 5.125 C-2 2 -2 2 0 0 Z " fill="#ACACAC" transform="translate(375,191)"/>
<path d="M0 0 C0.33 0 0.66 0 1 0 C0.88490339 1.41750563 0.75746342 2.83401169 0.625 4.25 C0.55539063 5.03890625 0.48578125 5.8278125 0.4140625 6.640625 C-0.02541008 9.14478952 -0.61427885 10.86957156 -2 13 C-2.99 13.33 -3.98 13.66 -5 14 C-3.45730076 9.27934033 -1.92205381 4.58335908 0 0 Z " fill="#919191" transform="translate(138,199)"/>
<path d="M0 0 C0.33 0 0.66 0 1 0 C0.53328373 5.41390868 -0.24297811 9.20517932 -3 14 C-3.33 14 -3.66 14 -4 14 C-4.56561146 8.34388537 -2.71391278 4.77357872 0 0 Z " fill="#AEAFAF" transform="translate(422,169)"/>
<path d="M0 0 C0.33 0 0.66 0 1 0 C1.5497272 5.63470383 -0.04952165 8.38987758 -3 13 C-3.66 13 -4.32 13 -5 13 C-4.3506938 9.49374651 -2.82074633 7.03457721 -1 4 C-0.30420546 1.80869466 -0.30420546 1.80869466 0 0 Z " fill="#A1A1A1" transform="translate(463,236)"/>
<path d="M0 0 C0.6875 1.8125 0.6875 1.8125 1 4 C-0.3125 5.75 -0.3125 5.75 -2 7 C-2.66 7 -3.32 7 -4 7 C-3.34 5.02 -2.68 3.04 -2 1 C-3.32 0.67 -4.64 0.34 -6 0 C-3.50907189 -1.24546405 -2.58919267 -0.7767578 0 0 Z " fill="#C0C0C0" transform="translate(391,242)"/>
<path d="M0 0 C0 3.4682737 -0.87317501 5.91266487 -2 9.1875 C-2.37125 10.27417969 -2.7425 11.36085937 -3.125 12.48046875 C-3.41375 13.31191406 -3.7025 14.14335937 -4 15 C-5.58927373 9.90760881 -3.63619875 5.90859626 -2 1 C-1.34 0.67 -0.68 0.34 0 0 Z " fill="#999999" transform="translate(207,209)"/>
<path d="M0 0 C1.1577506 3.47325181 1.06866652 6.36067448 1 10 C0.01 10.495 0.01 10.495 -1 11 C-3 8 -3 8 -2.75 4.9375 C-2 2 -2 2 0 0 Z " fill="#B2B2B2" transform="translate(125,235)"/>
<path d="M0 0 C0.66 0 1.32 0 2 0 C0.77472971 4.05281712 -0.69880494 7.44360764 -3 11 C-3.5534764 8.92446352 -4 7.15634036 -4 5 C-3.34 4.67 -2.68 4.34 -2 4 C-0.86649466 1.98330173 -0.86649466 1.98330173 0 0 Z " fill="#C1C1C1" transform="translate(238,223)"/>
<path d="M0 0 C1.60080151 4.00200378 0.29279692 7.04556236 -1 11 C-1.66 11 -2.32 11 -3 11 C-3 11.99 -3 12.98 -3 14 C-3.66 14 -4.32 14 -5 14 C-3.45730076 9.27934033 -1.92205381 4.58335908 0 0 Z " fill="#999999" transform="translate(146,180)"/>
<path d="M0 0 C0.33 0 0.66 0 1 0 C1.2396943 5.63281599 0.38529821 10.54538831 -1 16 C-1.33 16 -1.66 16 -2 16 C-2.05423638 14.08364783 -2.09289963 12.16685075 -2.125 10.25 C-2.14820313 9.18265625 -2.17140625 8.1153125 -2.1953125 7.015625 C-2.00487687 4.07529894 -1.52670104 2.47638122 0 0 Z " fill="#C2C2C2" transform="translate(457,175)"/>
<path d="M0 0 C0.33 0 0.66 0 1 0 C0.67 4.29 0.34 8.58 0 13 C-0.99 12.34 -1.98 11.68 -3 11 C-3.72731707 6.63609758 -2.09991849 3.76235396 0 0 Z " fill="#9D9E9E" transform="translate(66,240)"/>
<path d="M0 0 C0.33 0.66 0.66 1.32 1 2 C0.00390625 4.3828125 0.00390625 4.3828125 -1.4375 7.125 C-1.91058594 8.03507813 -2.38367188 8.94515625 -2.87109375 9.8828125 C-3.24363281 10.58148438 -3.61617188 11.28015625 -4 12 C-4.33 12 -4.66 12 -5 12 C-4.10164835 4.21428571 -4.10164835 4.21428571 -2 1 C-1.34 0.67 -0.68 0.34 0 0 Z " fill="#979797" transform="translate(487,205)"/>
<path d="M0 0 C2.625 0.9375 2.625 0.9375 5 2 C5 2.66 5 3.32 5 4 C2.83125748 3.49396008 1.00032373 3.00016187 -1 2 C-1.33 2.99 -1.66 3.98 -2 5 C-4.0625 5.6875 -4.0625 5.6875 -6 6 C-2.25 1.125 -2.25 1.125 0 0 Z " fill="#B2B2B2" transform="translate(381,169)"/>
<path d="M0 0 C1.1875 1.5 1.1875 1.5 2 4 C1.27101296 6.78824238 0.1843275 9.37665092 -1 12 C-1.66 12 -2.32 12 -3 12 C-2.40075776 7.80530429 -1.42500059 3.99000166 0 0 Z " fill="#B4B4B4" transform="translate(195,213)"/>
<path d="M0 0 C0.33 0 0.66 0 1 0 C2.33500455 5.34001821 1.512545 8.83955235 0 14 C-0.66 13.67 -1.32 13.34 -2 13 C-1.34 8.71 -0.68 4.42 0 0 Z " fill="#979797" transform="translate(500,198)"/>
<path d="M0 0 C1.25955231 3.77865693 0.48087189 5.03411786 -0.9375 8.6875 C-1.31777344 9.68136719 -1.69804687 10.67523438 -2.08984375 11.69921875 C-2.39019531 12.45847656 -2.69054687 13.21773437 -3 14 C-3.66 13.01 -4.32 12.02 -5 11 C-4.35546875 8.5546875 -4.35546875 8.5546875 -3.1875 5.875 C-2.80980469 4.98554688 -2.43210937 4.09609375 -2.04296875 3.1796875 C-1 1 -1 1 0 0 Z " fill="#C5C5C5" transform="translate(306,199)"/>
<path d="M0 0 C2.55687669 0.34552388 4.57501375 0.75087013 6.8125 2.0625 C8.7634059 5.24555699 8.1807718 8.32430673 8 12 C7.67 12 7.34 12 7 12 C7 9.69 7 7.38 7 5 C6.401875 4.731875 5.80375 4.46375 5.1875 4.1875 C3.02775192 3.01506533 1.64209744 1.80630718 0 0 Z " fill="#D0D0D0" transform="translate(163,218)"/>
<path d="M0 0 C0.33 0 0.66 0 1 0 C0.61271765 5.71241466 0.12989477 8.73688282 -4 13 C-3.40895235 8.15340923 -2.02055843 4.39251833 0 0 Z " fill="#969696" transform="translate(180,183)"/>
<path d="M0 0 C1.13643966 3.40931897 0.86747764 4.00335456 -0.4375 7.1875 C-0.72496094 7.90292969 -1.01242187 8.61835938 -1.30859375 9.35546875 C-1.53675781 9.89816406 -1.76492188 10.44085938 -2 11 C-2.66 10.67 -3.32 10.34 -4 10 C-3.52449439 8.51965236 -3.04448784 7.04074979 -2.5625 5.5625 C-2.29566406 4.73878906 -2.02882813 3.91507813 -1.75390625 3.06640625 C-1 1 -1 1 0 0 Z " fill="#9E9E9E" transform="translate(423,190)"/>
<path d="M0 0 C0.66 0 1.32 0 2 0 C0.79157144 4.43090471 -0.51668565 6.98112756 -4 10 C-3.43697042 6.05879291 -2.3208055 3.2491277 0 0 Z " fill="#9A9A9A" transform="translate(469,244)"/>
<path d="M0 0 C0.65234375 1.765625 0.65234375 1.765625 1 4 C0.00390625 5.921875 0.00390625 5.921875 -1.4375 7.75 C-1.91058594 8.36359375 -2.38367188 8.9771875 -2.87109375 9.609375 C-3.24363281 10.06828125 -3.61617188 10.5271875 -4 11 C-4.66 10.01 -5.32 9.02 -6 8 C-4.71937515 6.2925002 -3.38232443 4.62626404 -2 3 C-1.34 3 -0.68 3 0 3 C0 2.01 0 1.02 0 0 Z " fill="#B6B6B6" transform="translate(386,174)"/>
<path d="M0 0 C0.99 0.495 0.99 0.495 2 1 C2.4140625 3.06640625 2.4140625 3.06640625 2.625 5.5625 C2.69976562 6.38878906 2.77453125 7.21507812 2.8515625 8.06640625 C2.92503906 9.02353516 2.92503906 9.02353516 3 10 C2.01 9.67 1.02 9.34 0 9 C0 6.03 0 3.06 0 0 Z " fill="#DDDDDD" transform="translate(357,232)"/>
<path d="M0 0 C0.99 0 1.98 0 3 0 C1.8141763 3.37503669 0.72426311 5.64722731 -2 8 C-2.20086443 4.28400809 -2.1519437 3.22791555 0 0 Z " fill="#C2C2C2" transform="translate(100,197)"/>
<path d="M0 0 C0.66 0.33 1.32 0.66 2 1 C1.55090939 2.48199902 1.09043436 3.96055236 0.625 5.4375 C0.36976563 6.26121094 0.11453125 7.08492187 -0.1484375 7.93359375 C-1 10 -1 10 -3 11 C-2.69217504 9.35328588 -2.37860766 7.70764424 -2.0625 6.0625 C-1.88847656 5.14597656 -1.71445312 4.22945312 -1.53515625 3.28515625 C-1 1 -1 1 0 0 Z " fill="#999999" transform="translate(491,192)"/>
<path d="M0 0 C0.99 0 1.98 0 3 0 C2.1875 2.4375 2.1875 2.4375 1 5 C0.01 5.33 -0.98 5.66 -2 6 C-2 6.66 -2 7.32 -2 8 C-2.66 7.67 -3.32 7.34 -4 7 C-2.68 4.69 -1.36 2.38 0 0 Z " fill="#B8B8B8" transform="translate(324,185)"/>
<path d="M0 0 C0.99 0.33 1.98 0.66 3 1 C2.125 6.75 2.125 6.75 1 9 C0.34 9 -0.32 9 -1 9 C-0.67 6.69 -0.34 4.38 0 2 C-0.66 1.67 -1.32 1.34 -2 1 C-1.34 0.67 -0.68 0.34 0 0 Z " fill="#B3B3B3" transform="translate(171,179)"/>
<path d="M0 0 C2.75 -0.3125 2.75 -0.3125 6 0 C8.375 2.5 8.375 2.5 10 5 C8.68 5 7.36 5 6 5 C5.67 4.01 5.34 3.02 5 2 C3.35 1.67 1.7 1.34 0 1 C0 0.67 0 0.34 0 0 Z " fill="#AEAFAE" transform="translate(125,246)"/>
<path d="M0 0 C0.66 0 1.32 0 2 0 C1.46930939 3.82097239 0.50298434 6.06171403 -2 9 C-1.125 1.125 -1.125 1.125 0 0 Z " fill="#A7A7A7" transform="translate(153,186)"/>
<path d="M0 0 C0.66 0 1.32 0 2 0 C1.34 2.97 0.68 5.94 0 9 C-0.66 9 -1.32 9 -2 9 C-2.20140476 5.37471432 -1.85776765 3.13498292 0 0 Z " fill="#A2A2A2" transform="translate(463,184)"/>
<path d="M0 0 C0.33 0 0.66 0 1 0 C1.33 3.63 1.66 7.26 2 11 C1.34 11 0.68 11 0 11 C-1.28571429 3.57142857 -1.28571429 3.57142857 0 0 Z " fill="#E0E0E0" transform="translate(197,233)"/>
<path d="M0 0 C0.33 0.99 0.66 1.98 1 3 C0.01 3.33 -0.98 3.66 -2 4 C-2 5.65 -2 7.3 -2 9 C-2.99 9.495 -2.99 9.495 -4 10 C-3.38461538 3.47692308 -3.38461538 3.47692308 -1.4375 1.0625 C-0.7259375 0.5365625 -0.7259375 0.5365625 0 0 Z " fill="#B0B0B0" transform="translate(81,214)"/>
<path d="M0 0 C0.33 0 0.66 0 1 0 C1.625 2.8125 1.625 2.8125 2 6 C1.01 7.485 1.01 7.485 0 9 C-0.66 9 -1.32 9 -2 9 C-1.34 6.03 -0.68 3.06 0 0 Z " fill="#BEBEBE" transform="translate(311,213)"/>
<path d="M0 0 C0.66 0.33 1.32 0.66 2 1 C0.68 3.64 -0.64 6.28 -2 9 C-2.33 9 -2.66 9 -3 9 C-3 7.35 -3 5.7 -3 4 C-2.01 3.67 -1.02 3.34 0 3 C0 2.01 0 1.02 0 0 Z " fill="#BFBFBF" transform="translate(322,209)"/>
<path d="M0 0 C0.33 1.32 0.66 2.64 1 4 C0.34 4 -0.32 4 -1 4 C-1 5.65 -1 7.3 -1 9 C-1.99 9.33 -2.98 9.66 -4 10 C-2.99806563 6.20696275 -2.18975773 3.28463659 0 0 Z " fill="#B7B7B7" transform="translate(319,194)"/>
<path d="M0 0 C0.66 0 1.32 0 2 0 C0.90931332 3.77545388 0.0916909 6.47043472 -3 9 C-3.33 8.01 -3.66 7.02 -4 6 C-3.01 5.67 -2.02 5.34 -1 5 C-0.67 3.35 -0.34 1.7 0 0 Z " fill="#BCBCBC" transform="translate(332,189)"/>
<path d="M0 0 C0 0.66 0 1.32 0 2 C1.65 2 3.3 2 5 2 C5 2.33 5 2.66 5 3 C1.7 3 -1.6 3 -5 3 C-5 2.34 -5 1.68 -5 1 C-2 0 -2 0 0 0 Z " fill="#B8B8B8" transform="translate(106,276)"/>
<path d="M0 0 C0.66 0 1.32 0 2 0 C1.44271087 3.34373475 0.64826111 6.03312999 -1 9 C-1.66 8.67 -2.32 8.34 -3 8 C-2.01 5.36 -1.02 2.72 0 0 Z " fill="#C4C4C4" transform="translate(234,212)"/>
<path d="M0 0 C0.66 0.33 1.32 0.66 2 1 C1.45276317 4.37462715 0.9451 6.08235 -1 9 C-1.09765625 2.84765625 -1.09765625 2.84765625 -1 1 C-0.67 0.67 -0.34 0.34 0 0 Z " fill="#AAABAA" transform="translate(364,212)"/>
<path d="M0 0 C0.33 0 0.66 0 1 0 C1.25 2.75 1.25 2.75 1 6 C-1 8.375 -1 8.375 -3 10 C-2.01 6.7 -1.02 3.4 0 0 Z " fill="#9A9B9B" transform="translate(357,207)"/>
<path d="M0 0 C0.66 0.33 1.32 0.66 2 1 C2.1875 3.3125 2.1875 3.3125 2 6 C1.01 6.99 0.02 7.98 -1 9 C-0.67 6.03 -0.34 3.06 0 0 Z " fill="#D7D7D7" transform="translate(255,207)"/>
</svg>
